# xmcd
#
# Track frame offsets:
#	150
#	18940
#	34433
#	54658
#	70675
#	89910
#	106966
#	122356
#	139672
#	161716
#	178458
#	198425
#	215012
#	230869
#	249533
#	267161
#	272437
#
# Disc length: 3826 seconds
#
# Revision: 0
# Processed by: cddbd v1.4PL0 Copyright (c) Steve Scherf et al.
# Submitted via: dBpowerAMP V4.0
#
DISCID=030ef011
DTITLE=Son Volt - High Voltage
DYEAR=1995
DGENRE=Folk-Rock
TTITLE0=Route
TTITLE1=Loose Strings
TTITLE2=Catching On
TTITLE3=Live Free
TTITLE4=Anodyne
TTITLE5=Windfall
TTITLE6=Slate
TTITLE7=Out of the Picture
TTITLE8=Tear-Stained Eye
TTITLE9=Grindstone
TTITLE10=Ten Second News
TTITLE11=Fifteen Keys
TTITLE12=Drown
TTITLE13=Looking for a Way Out
TTITLE14=Chickamauga
TTITLE15=Appreciation
TTITLE16=Lookin' at the World
EXTD=Live Recording
EXTT0=
EXTT1=
EXTT2=
EXTT3=
EXTT4=
EXTT5=
EXTT6=
EXTT7=
EXTT8=
EXTT9=
EXTT10=
EXTT11=
EXTT12=
EXTT13=
EXTT14=
EXTT15=
EXTT16=
PLAYORDER=
